<svg xmlns="http://www.w3.org/2000/svg" xmlns:xlink="http://www.w3.org/1999/xlink" viewBox="0 0 50 50"><path d="M25 2C12.296875 2 2 12.296875 2 25C2 37.703125 12.296875 48 25 48C37.703125 48 48 37.703125 48 25C48 12.296875 37.703125 2 25 2 Z M 22.28125 19.125L24.125 20.5625L19.5625 24.125L20.4375 24.8125L25 21.25L26.84375 22.6875L22.28125 26.28125L23.15625 26.96875L27.71875 23.375L27.71875 20.09375L31 20.09375L31 26.78125L34.3125 26.78125L34.3125 29.5625L27.71875 29.5625L27.71875 26.28125L22.28125 30.53125L17.3125 26.625C16.597656 28.347656 14.875 29.5625 12.875 29.5625L8.625 29.5625L8.625 20.09375L12.875 20.09375C15.105469 20.09375 16.710938 21.519531 17.3125 23.03125 Z M 35.1875 20.09375L38.46875 20.09375L38.46875 26.78125L41.78125 26.78125L41.78125 29.5625L35.1875 29.5625 Z M 11.8125 22.8125L11.8125 26.84375L12.53125 26.84375C13.648438 26.84375 14.59375 26.214844 14.59375 24.8125C14.59375 23.527344 13.730469 22.8125 12.53125 22.8125Z"/></svg>