<svg xmlns="http://www.w3.org/2000/svg" xmlns:xlink="http://www.w3.org/1999/xlink" viewBox="0 0 64 64"><path fill="#c2cde7" d="M57 61L7 61 7 52.06 10 47 7 41.84 7 3 57 3 57 41.84 54 47 57 52.13 57 61z"/><path fill="#ced8ed" d="M32 9A19 19 0 1 0 32 47A19 19 0 1 0 32 9Z"/><path fill="#b5c4e0" d="M7 55H57V61H7z"/><path fill="#dde6f2" d="M50.76 30.88A18.64 18.64 0 0 0 46 15.24L19.24 42a18.63 18.63 0 0 0 15.65 4.71zM14.45 35.27a19 19 0 0 0 3.1 5L44.31 13.54a19 19 0 0 0-5-3.1zM13.07 29.43a18.91 18.91 0 0 0 .53 3.25L36.68 9.6a18.93 18.93 0 0 0-3.25-.53z"/><path fill="#f9dd8f" d="M32 21A7 7 0 1 0 32 35 7 7 0 1 0 32 21zM28 38L15 53 15 57 23 57 31 40.5 28 38z"/><path fill="#f5c872" d="M15.87 52L15 53 15 57 23 57 25.42 52 15.87 52z"/><path fill="#8d6c9f" d="M57.31,43.45A5,5,0,0,0,58,40.91V5a3,3,0,0,0-3-3H9A3,3,0,0,0,6,5V40.84a5,5,0,0,0,.68,2.51l1.87,3.21a1,1,0,0,1,0,1l-1.82,3A5,5,0,0,0,6,53.19V59a3,3,0,0,0,3,3H55a3,3,0,0,0,3-3V53.19a5,5,0,0,0-.71-2.57l-1.82-3a1,1,0,0,1,0-1Zm-3.55,5.17,1.82,3A3,3,0,0,1,56,53.19V59a1,1,0,0,1-1,1H9a1,1,0,0,1-1-1V56h5.48c0,.09.06.18.1.27A3,3,0,0,0,16.3,58h5.37a3,3,0,0,0,2.77-1.84l.07-.16H46a1,1,0,0,0,0-2H25.35L28,47.6A20,20,0,1,0,12,28a19.91,19.91,0,0,0,9,16.72l-7,8.35a3,3,0,0,0-.53.93H8v-.81a3,3,0,0,1,.43-1.54l1.82-3a3,3,0,0,0,0-3L8.41,42.35A3,3,0,0,1,8,40.84V5A1,1,0,0,1,9,4H55a1,1,0,0,1,1,1V40.91a3,3,0,0,1-.42,1.52l-1.84,3.12A3,3,0,0,0,53.75,48.62ZM30.81,38.13A2.52,2.52,0,0,0,28.71,37h0a2.51,2.51,0,0,0-1.93.9l-4.45,5.28A18,18,0,1,1,32,46a18.16,18.16,0,0,1-3.17-.28L31,40.5A2.52,2.52,0,0,0,30.81,38.13Zm-2.5,1.06a.52.52,0,0,1,.4-.18h0a.52.52,0,0,1,.48.72l-6.6,15.67a1,1,0,0,1-.92.61H16.3a1,1,0,0,1-.76-1.64Z"/><path fill="#8d6c9f" d="M13 7A2 2 0 1 0 13 11 2 2 0 1 0 13 7zM51 7A2 2 0 1 0 51 11 2 2 0 1 0 51 7zM32 26A2 2 0 1 0 32 30 2 2 0 1 0 32 26zM51 53A2 2 0 1 0 51 57 2 2 0 1 0 51 53zM41 20.1a1 1 0 1 0 1.51-1.32A14.07 14.07 0 0 0 40.67 17a1 1 0 1 0-1.24 1.57A12 12 0 0 1 41 20.1zM27.79 16.7a1 1 0 0 0 .32-.05 12.12 12.12 0 0 1 7.65 0 1 1 0 1 0 .63-1.9 14.13 14.13 0 0 0-8.93 0 1 1 0 0 0 .32 1.95z"/><path fill="#8d6c9f" d="M40 28a8 8 0 1 0-8 8A8 8 0 0 0 40 28zM26 28a6 6 0 1 1 6 6A6 6 0 0 1 26 28zM23.51 35.07L22.1 36.49a1 1 0 1 0 1.41 1.41l1.41-1.41a1 1 0 0 0-1.41-1.41zM22.79 31.91a1 1 0 0 0-1.31-.53l-1.84.78A1 1 0 0 0 20.42 34l1.84-.78A1 1 0 0 0 22.79 31.91zM22 28.18a1 1 0 0 0-1-1l-2 0a1 1 0 0 0 0 2h0l2 0A1 1 0 0 0 22 28.18zM19.5 24.27l1.87.72a1 1 0 0 0 .72-1.87l-1.87-.72a1 1 0 0 0-.72 1.87z"/><path fill="#fff8f8" d="M22.5 16L23.38 17.61 25 18.5 23.38 19.38 22.5 21 21.62 19.38 20 18.5 21.62 17.61 22.5 16zM37.42 37L38.27 38.56 39.84 39.42 38.27 40.27 37.42 41.84 36.56 40.27 35 39.42 36.56 38.56 37.42 37zM44.35 24L44.94 25.07 46 25.65 44.94 26.23 44.35 27.3 43.77 26.23 42.7 25.65 43.77 25.07 44.35 24z"/></svg>