<svg xmlns="http://www.w3.org/2000/svg" xmlns:xlink="http://www.w3.org/1999/xlink" viewBox="0 0 64 64"><linearGradient id="8mVVyRMNaTztXntFhU9ESa" x1="32" x2="32" y1="21" y2="31.5" gradientUnits="userSpaceOnUse" spreadMethod="reflect"><stop offset="0" stop-color="#6dc7ff"/><stop offset="1" stop-color="#e6abff"/></linearGradient><path fill="url(#8mVVyRMNaTztXntFhU9ESa)" d="M32 21.999A4 4 0 1 0 32 29.999A4 4 0 1 0 32 21.999Z"/><linearGradient id="8mVVyRMNaTztXntFhU9ESb" x1="32" x2="32" y1="7.167" y2="58.22" gradientUnits="userSpaceOnUse" spreadMethod="reflect"><stop offset="0" stop-color="#1a6dff"/><stop offset="1" stop-color="#c822ff"/></linearGradient><path fill="url(#8mVVyRMNaTztXntFhU9ESb)" d="M57.833,43.14l-7.16-32.222C50.16,8.611,48.152,7,45.789,7H18.211 c-2.363,0-4.372,1.611-4.884,3.918l-7.16,32.221C6.056,43.637,6,44.147,6,44.658V46v2v6c0,1.654,1.346,3,3,3h46c1.654,0,3-1.346,3-3 v-6v-2v-1.342C58,44.147,57.944,43.637,57.833,43.14z M15.279,11.352C15.587,9.967,16.793,9,18.211,9h27.577 c1.418,0,2.624,0.967,2.932,2.352L53.976,35H50v2h4.42l0.444,2H46v2h9.309l0.47,2.115C55.529,43.048,55.271,43,55,43H39.597 L37.4,38.919c5.189-2.16,8.6-7.214,8.6-12.92c0-7.72-6.28-14-14-14s-14,6.28-14,14c0,5.706,3.411,10.76,8.6,12.92L24.403,43H9 c-0.271,0-0.529,0.048-0.779,0.115L8.691,41H18v-2H9.135l0.444-2H14v-2h-3.976L15.279,11.352z M34.637,33.787 c-0.523-0.971-1.534-1.574-2.637-1.574s-2.114,0.604-2.637,1.575l-1.807,3.357C23.006,35.335,20,30.956,20,25.999 c0-6.617,5.383-12,12-12s12,5.383,12,12c0,4.958-3.006,9.337-7.555,11.146L34.637,33.787z M31.124,34.736 c0.254-0.473,0.698-0.523,0.876-0.523s0.622,0.051,0.876,0.522L37.327,43H26.673L31.124,34.736z M56,54c0,0.552-0.449,1-1,1H9 c-0.551,0-1-0.448-1-1v-6v-2c0-0.552,0.449-1,1-1h46c0.551,0,1,0.448,1,1v2V54z"/><linearGradient id="8mVVyRMNaTztXntFhU9ESc" x1="48" x2="48" y1="7.167" y2="58.22" gradientUnits="userSpaceOnUse" spreadMethod="reflect"><stop offset="0" stop-color="#1a6dff"/><stop offset="1" stop-color="#c822ff"/></linearGradient><path fill="url(#8mVVyRMNaTztXntFhU9ESc)" d="M52,47h-8c-1.103,0-2,0.897-2,2v2c0,1.103,0.897,2,2,2h8c1.103,0,2-0.897,2-2v-2 C54,47.897,53.103,47,52,47z M52,51h-8v-2h8V51z"/><linearGradient id="8mVVyRMNaTztXntFhU9ESd" x1="13" x2="13" y1="7.167" y2="58.22" gradientUnits="userSpaceOnUse" spreadMethod="reflect"><stop offset="0" stop-color="#1a6dff"/><stop offset="1" stop-color="#c822ff"/></linearGradient><path fill="url(#8mVVyRMNaTztXntFhU9ESd)" d="M14,47h-2c-1.103,0-2,0.897-2,2v2c0,1.103,0.897,2,2,2h2c1.103,0,2-0.897,2-2v-2 C16,47.897,15.103,47,14,47z M14,51h-2v-2h2V51z"/><linearGradient id="8mVVyRMNaTztXntFhU9ESe" x1="21" x2="21" y1="7.167" y2="58.22" gradientUnits="userSpaceOnUse" spreadMethod="reflect"><stop offset="0" stop-color="#1a6dff"/><stop offset="1" stop-color="#c822ff"/></linearGradient><path fill="url(#8mVVyRMNaTztXntFhU9ESe)" d="M22,47h-2c-1.103,0-2,0.897-2,2v2c0,1.103,0.897,2,2,2h2c1.103,0,2-0.897,2-2v-2 C24,47.897,23.103,47,22,47z M22,51h-2v-2h2V51z"/><linearGradient id="8mVVyRMNaTztXntFhU9ESf" x1="29" x2="29" y1="7.167" y2="58.22" gradientUnits="userSpaceOnUse" spreadMethod="reflect"><stop offset="0" stop-color="#1a6dff"/><stop offset="1" stop-color="#c822ff"/></linearGradient><path fill="url(#8mVVyRMNaTztXntFhU9ESf)" d="M30,47h-2c-1.103,0-2,0.897-2,2v2c0,1.103,0.897,2,2,2h2c1.103,0,2-0.897,2-2v-2 C32,47.897,31.103,47,30,47z M30,51h-2v-2h2V51z"/></svg>