<svg xmlns="http://www.w3.org/2000/svg" xmlns:xlink="http://www.w3.org/1999/xlink" viewBox="0 0 64 64"><path fill="#5dbc9d" d="M61,29c0,1.1,0.9,2,2,2v10c0,1.1-0.9,2-2,2h-1c-0.55,0-1,0.45-1,1v4c0,0.55-0.45,1-1,1H40 c-0.55,0-1-0.45-1-1v-3c0-1.1-0.9-2-2-2s-2,0.9-2,2v3c0,0.55-0.45,1-1,1H6c-0.55,0-1-0.45-1-1v-4c0-0.55-0.45-1-1-1H3 c-1.1,0-2-0.9-2-2V31c1.1,0,2-0.9,2-2c0-1.1-0.9-2-2-2V17c0-1.1,0.9-2,2-2h58c1.1,0,2,0.9,2,2v10C61.9,27,61,27.9,61,29z"/><path fill="#72caaf" d="M52.62 15L28.62 39 22.19 39 46.19 15zM63 17v7.97L48.95 39H32.88l24.03-24H61C62.1 15 63 15.9 63 17zM41.91 15L17.92 39 12.56 39 36.55 15z"/><path fill="#ffeb9b" d="M63,39v2c0,1.1-0.9,2-2,2h-1c-0.55,0-1,0.45-1,1v4c0,0.55-0.45,1-1,1H40c-0.55,0-1-0.45-1-1v-3 c0-1.1-0.9-2-2-2s-2,0.9-2,2v3c0,0.55-0.45,1-1,1H6c-0.55,0-1-0.45-1-1v-4c0-0.55-0.45-1-1-1H3c-1.1,0-2-0.9-2-2v-2H63z"/><path fill="#8b8e98" d="M7 21H15V33H7zM21 21H29V33H21zM35 21H43V33H35zM49 21H57V33H49z"/><path fill="#986ca1" d="M63,28c0.553,0,1-0.447,1-1V17c0-1.654-1.346-3-3-3H3c-1.654,0-3,1.346-3,3v10c0,0.553,0.447,1,1,1 c0.552,0,1,0.448,1,1s-0.448,1-1,1c-0.553,0-1,0.447-1,1v10c0,1.654,1.346,3,3,3h1v4c0,1.103,0.897,2,2,2h28c1.103,0,2-0.897,2-2 v-3c0-0.552,0.448-1,1-1s1,0.448,1,1v3c0,1.103,0.897,2,2,2h18c1.103,0,2-0.897,2-2v-4h1c1.654,0,3-1.346,3-3V31 c0-0.553-0.447-1-1-1c-0.552,0-1-0.448-1-1S62.448,28,63,28z M62,26.171c-1.164,0.413-2,1.525-2,2.829s0.836,2.416,2,2.829V41 c0,0.552-0.448,1-1,1h-1c-1.103,0-2,0.897-2,2l0.002,4H40v-3c0-1.654-1.346-3-3-3s-3,1.346-3,3v3H6v-4c0-1.103-0.897-2-2-2H3 c-0.552,0-1-0.448-1-1v-9.171C3.164,31.416,4,30.304,4,29s-0.836-2.416-2-2.829V17c0-0.552,0.448-1,1-1h58c0.552,0,1,0.448,1,1 V26.171z"/><path fill="#986ca1" d="M10 42c-.553 0-1 .447-1 1v2c0 .553.447 1 1 1s1-.447 1-1v-2C11 42.447 10.553 42 10 42zM15 42c-.553 0-1 .447-1 1v2c0 .553.447 1 1 1s1-.447 1-1v-2C16 42.447 15.553 42 15 42zM20 42c-.553 0-1 .447-1 1v2c0 .553.447 1 1 1s1-.447 1-1v-2C21 42.447 20.553 42 20 42zM25 42c-.553 0-1 .447-1 1v2c0 .553.447 1 1 1s1-.447 1-1v-2C26 42.447 25.553 42 25 42zM30 42c-.553 0-1 .447-1 1v2c0 .553.447 1 1 1s1-.447 1-1v-2C31 42.447 30.553 42 30 42zM44 42c-.553 0-1 .447-1 1v2c0 .553.447 1 1 1s1-.447 1-1v-2C45 42.447 44.553 42 44 42zM49 42c-.553 0-1 .447-1 1v2c0 .553.447 1 1 1s1-.447 1-1v-2C50 42.447 49.553 42 49 42zM54 42c-.553 0-1 .447-1 1v2c0 .553.447 1 1 1s1-.447 1-1v-2C55 42.447 54.553 42 54 42zM51 38H5c-.553 0-1 .447-1 1s.447 1 1 1h46c.553 0 1-.447 1-1S51.553 38 51 38zM59 38h-4c-.553 0-1 .447-1 1s.447 1 1 1h4c.553 0 1-.447 1-1S59.553 38 59 38zM7 34h8c.553 0 1-.447 1-1V21c0-.553-.447-1-1-1H7c-.553 0-1 .447-1 1v12C6 33.553 6.447 34 7 34zM8 22h6v10H8V22zM21 34h8c.553 0 1-.447 1-1V21c0-.553-.447-1-1-1h-8c-.553 0-1 .447-1 1v12C20 33.553 20.447 34 21 34zM22 22h6v10h-6V22zM35 34h8c.553 0 1-.447 1-1V21c0-.553-.447-1-1-1h-8c-.553 0-1 .447-1 1v12C34 33.553 34.447 34 35 34zM36 22h6v10h-6V22zM49 34h8c.553 0 1-.447 1-1V21c0-.553-.447-1-1-1h-8c-.553 0-1 .447-1 1v12C48 33.553 48.447 34 49 34zM50 22h6v10h-6V22z"/></svg>