<svg xmlns="http://www.w3.org/2000/svg" xmlns:xlink="http://www.w3.org/1999/xlink" viewBox="0 0 64 64"><path d="M5 8C3.347656 8 2 9.347656 2 11L2 53C2 54.652344 3.347656 56 5 56L59 56C60.652344 56 62 54.652344 62 53L62 11C62 9.347656 60.652344 8 59 8 Z M 5 10L39 10C39.550781 10 40 10.449219 40 11L40 33C40 33.550781 39.550781 34 39 34L5 34C4.449219 34 4 33.550781 4 33L4 11C4 10.449219 4.449219 10 5 10 Z M 41.816406 10L49 10C49.550781 10 50 10.449219 50 11L50 43C50 43.550781 49.550781 44 49 44L5 44C4.449219 44 4 43.550781 4 43L4 35.816406C4.3125 35.929688 4.648438 36 5 36L39 36C40.652344 36 42 34.652344 42 33L42 11C42 10.648438 41.929688 10.3125 41.816406 10 Z M 51.816406 10L59 10C59.550781 10 60 10.449219 60 11L60 53C60 53.550781 59.550781 54 59 54L5 54C4.449219 54 4 53.550781 4 53L4 45.816406C4.3125 45.929688 4.648438 46 5 46L49 46C50.652344 46 52 44.652344 52 43L52 11C52 10.648438 51.929688 10.3125 51.816406 10 Z M 7 28C6.449219 28 6 28.445313 6 29L6 31C6 31.554688 6.449219 32 7 32C7.550781 32 8 31.554688 8 31L8 29C8 28.445313 7.550781 28 7 28 Z M 12 28C11.449219 28 11 28.445313 11 29L11 31C11 31.554688 11.449219 32 12 32C12.550781 32 13 31.554688 13 31L13 29C13 28.445313 12.550781 28 12 28 Z M 17 28C16.449219 28 16 28.445313 16 29L16 31C16 31.554688 16.449219 32 17 32C17.550781 32 18 31.554688 18 31L18 29C18 28.445313 17.550781 28 17 28 Z M 22 28C21.449219 28 21 28.445313 21 29L21 31C21 31.554688 21.449219 32 22 32C22.550781 32 23 31.554688 23 31L23 29C23 28.445313 22.550781 28 22 28 Z M 27 28C26.449219 28 26 28.445313 26 29L26 31C26 31.554688 26.449219 32 27 32C27.550781 32 28 31.554688 28 31L28 29C28 28.445313 27.550781 28 27 28 Z M 32 28C31.449219 28 31 28.445313 31 29L31 31C31 31.554688 31.449219 32 32 32C32.550781 32 33 31.554688 33 31L33 29C33 28.445313 32.550781 28 32 28 Z M 37 28C36.449219 28 36 28.445313 36 29L36 31C36 31.554688 36.449219 32 37 32C37.550781 32 38 31.554688 38 31L38 29C38 28.445313 37.550781 28 37 28Z"/></svg>