<svg xmlns="http://www.w3.org/2000/svg" xmlns:xlink="http://www.w3.org/1999/xlink" viewBox="0 0 100 100"><path fill="#78a0cf" d="M13 27A2 2 0 1 0 13 31A2 2 0 1 0 13 27Z"/><path fill="#f1bc19" d="M77 12A1 1 0 1 0 77 14A1 1 0 1 0 77 12Z"/><path fill="#cee1f4" d="M50 13A37 37 0 1 0 50 87A37 37 0 1 0 50 13Z"/><path fill="#f1bc19" d="M83 11A4 4 0 1 0 83 19A4 4 0 1 0 83 11Z"/><path fill="#78a0cf" d="M87 22A2 2 0 1 0 87 26A2 2 0 1 0 87 22Z"/><path fill="#fbcd59" d="M81 74A2 2 0 1 0 81 78 2 2 0 1 0 81 74zM15 59A4 4 0 1 0 15 67 4 4 0 1 0 15 59z"/><path fill="#78a0cf" d="M25 85A2 2 0 1 0 25 89A2 2 0 1 0 25 85Z"/><path fill="#fff" d="M18.5 51A2.5 2.5 0 1 0 18.5 56A2.5 2.5 0 1 0 18.5 51Z"/><path fill="#f1bc19" d="M21 66A1 1 0 1 0 21 68A1 1 0 1 0 21 66Z"/><path fill="#fff" d="M80 33A1 1 0 1 0 80 35A1 1 0 1 0 80 33Z"/><g><path fill="#cbc9bc" d="M63.243,30.774v-3.659c0-0.412,0.338-0.75,0.75-0.75h0.711c0.412,0,0.75,0.337,0.75,0.75v3.659 c0,0.413-0.338,0.75-0.75,0.75h-0.711C63.581,31.524,63.243,31.186,63.243,30.774z"/><path fill="#472b29" d="M64.704,31.899h-0.711c-0.62,0-1.125-0.505-1.125-1.125v-3.659c0-0.62,0.505-1.125,1.125-1.125 h0.711c0.62,0,1.125,0.505,1.125,1.125v3.659C65.829,31.394,65.324,31.899,64.704,31.899z M63.993,26.74 c-0.203,0-0.375,0.172-0.375,0.375v3.659c0,0.207,0.168,0.375,0.375,0.375h0.711c0.207,0,0.375-0.168,0.375-0.375v-3.659 c0-0.207-0.168-0.375-0.375-0.375H63.993z"/><path fill="#e1e0d8" d="M58.612,73.162H39.871c-2.75,0-5-2.25-5-5V25.838c0-2.75,2.25-5,5-5h18.741c2.75,0,5,2.25,5,5 v42.324C63.612,70.912,61.362,73.162,58.612,73.162z"/><path fill="#472b29" d="M58.612,73.862H39.871c-3.143,0-5.7-2.557-5.7-5.7V25.838c0-3.143,2.558-5.7,5.7-5.7h18.741 c3.143,0,5.7,2.557,5.7,5.7v42.324C64.312,71.305,61.755,73.862,58.612,73.862z M39.871,21.538c-2.371,0-4.3,1.929-4.3,4.3 v42.324c0,2.371,1.929,4.3,4.3,4.3h18.741c2.371,0,4.3-1.929,4.3-4.3V25.838c0-2.371-1.929-4.3-4.3-4.3H39.871z"/><path fill="#c5def0" d="M60.664 34.103L60.664 64.318 38.555 64.318 38.555 57.686 38.555 50.316 38.555 27.471 57.716 27.471 60.664 27.471z"/><path fill="#472b29" d="M38.187 50.323c-.207 0-.375-.168-.375-.375V27.102c0-.207.168-.375.375-.375h19.16c.207 0 .375.168.375.375s-.168.375-.375.375H38.562v22.471C38.562 50.155 38.394 50.323 38.187 50.323zM60.296 64.325H38.187c-.207 0-.375-.168-.375-.375v-6.633c0-.207.168-.375.375-.375s.375.168.375.375v6.258H59.92v-29.84c0-.207.168-.375.375-.375s.375.168.375.375V63.95C60.671 64.157 60.503 64.325 60.296 64.325z"/><path fill="#cbc9bc" d="M48.873 66.161A1.842 1.842 0 1 0 48.873 69.845A1.842 1.842 0 1 0 48.873 66.161Z"/><path fill="#472b29" d="M48.873 70.22c-1.223 0-2.218-.995-2.218-2.217s.995-2.217 2.218-2.217 2.217.995 2.217 2.217S50.095 70.22 48.873 70.22zM48.873 66.536c-.81 0-1.468.658-1.468 1.467s.658 1.467 1.468 1.467c.809 0 1.467-.658 1.467-1.467S49.681 66.536 48.873 66.536zM52.189 24.523h-5.896c-.203 0-.368-.166-.368-.368l0 0c0-.203.166-.368.368-.368h5.896c.203 0 .368.166.368.368l0 0C52.557 24.357 52.392 24.523 52.189 24.523z"/><path fill="#d1dc82" d="M43.674,34.472h-2.13c-0.63,0-1.146-0.516-1.146-1.146v-2.13c0-0.63,0.516-1.146,1.146-1.146 h2.13c0.63,0,1.146,0.516,1.146,1.146v2.13C44.819,33.956,44.304,34.472,43.674,34.472z"/><path fill="#472b29" d="M43.674,34.847h-2.13c-0.839,0-1.521-0.682-1.521-1.521v-2.13c0-0.839,0.683-1.521,1.521-1.521 h2.13c0.839,0,1.521,0.682,1.521,1.521v2.13C45.194,34.165,44.512,34.847,43.674,34.847z M41.544,30.425 c-0.426,0-0.771,0.346-0.771,0.771v2.13c0,0.425,0.346,0.771,0.771,0.771h2.13c0.425,0,0.771-0.346,0.771-0.771v-2.13 c0-0.425-0.346-0.771-0.771-0.771L41.544,30.425z"/><path fill="#78a0cf" d="M50.306,34.472h-2.13c-0.63,0-1.146-0.516-1.146-1.146v-2.13c0-0.63,0.516-1.146,1.146-1.146 h2.13c0.63,0,1.146,0.516,1.146,1.146v2.13C51.452,33.956,50.936,34.472,50.306,34.472z"/><path fill="#472b29" d="M50.306,34.847h-2.13c-0.839,0-1.521-0.682-1.521-1.521v-2.13c0-0.839,0.683-1.521,1.521-1.521 h2.13c0.839,0,1.521,0.682,1.521,1.521v2.13C51.827,34.165,51.145,34.847,50.306,34.847z M48.176,30.425 c-0.426,0-0.771,0.346-0.771,0.771v2.13c0,0.425,0.346,0.771,0.771,0.771h2.13c0.425,0,0.771-0.346,0.771-0.771v-2.13 c0-0.425-0.346-0.771-0.771-0.771L48.176,30.425z"/><path fill="#f1bc19" d="M56.939,34.472h-2.13c-0.63,0-1.146-0.516-1.146-1.146v-2.13c0-0.63,0.516-1.146,1.146-1.146 h2.13c0.63,0,1.146,0.516,1.146,1.146v2.13C58.085,33.956,57.569,34.472,56.939,34.472z"/><path fill="#472b29" d="M56.939,34.847h-2.131c-0.839,0-1.521-0.682-1.521-1.521v-2.13c0-0.839,0.682-1.521,1.521-1.521 h2.131c0.839,0,1.521,0.682,1.521,1.521v2.13C58.46,34.165,57.778,34.847,56.939,34.847z M54.808,30.425 c-0.425,0-0.771,0.346-0.771,0.771v2.13c0,0.425,0.346,0.771,0.771,0.771h2.131c0.425,0,0.771-0.346,0.771-0.771v-2.13 c0-0.425-0.346-0.771-0.771-0.771L54.808,30.425z"/><g><path fill="#ec795a" d="M43.674,41.104h-2.13c-0.63,0-1.146-0.516-1.146-1.146v-2.13c0-0.63,0.516-1.146,1.146-1.146 h2.13c0.63,0,1.146,0.516,1.146,1.146v2.13C44.819,40.589,44.304,41.104,43.674,41.104z"/><path fill="#472b29" d="M43.674,41.479h-2.13c-0.839,0-1.521-0.682-1.521-1.521v-2.13c0-0.838,0.683-1.521,1.521-1.521 h2.13c0.839,0,1.521,0.682,1.521,1.521v2.13C45.194,40.797,44.512,41.479,43.674,41.479z M41.544,37.058 c-0.426,0-0.771,0.346-0.771,0.771v2.13c0,0.425,0.346,0.771,0.771,0.771h2.13c0.425,0,0.771-0.346,0.771-0.771v-2.13 c0-0.425-0.346-0.771-0.771-0.771H41.544z"/></g><g><path fill="#ee3e54" d="M50.306,41.104h-2.13c-0.63,0-1.146-0.516-1.146-1.146v-2.13c0-0.63,0.516-1.146,1.146-1.146 h2.13c0.63,0,1.146,0.516,1.146,1.146v2.13C51.452,40.589,50.936,41.104,50.306,41.104z"/><path fill="#472b29" d="M50.306,41.479h-2.13c-0.839,0-1.521-0.682-1.521-1.521v-2.13c0-0.838,0.683-1.521,1.521-1.521 h2.13c0.839,0,1.521,0.682,1.521,1.521v2.13C51.827,40.797,51.145,41.479,50.306,41.479z M48.176,37.058 c-0.426,0-0.771,0.346-0.771,0.771v2.13c0,0.425,0.346,0.771,0.771,0.771h2.13c0.425,0,0.771-0.346,0.771-0.771v-2.13 c0-0.425-0.346-0.771-0.771-0.771H48.176z"/></g><g><path fill="#00a5a5" d="M56.939,41.104h-2.13c-0.63,0-1.146-0.516-1.146-1.146v-2.13c0-0.63,0.516-1.146,1.146-1.146 h2.13c0.63,0,1.146,0.516,1.146,1.146v2.13C58.085,40.589,57.569,41.104,56.939,41.104z"/><path fill="#472b29" d="M56.939,41.479h-2.131c-0.839,0-1.521-0.682-1.521-1.521v-2.13c0-0.838,0.682-1.521,1.521-1.521 h2.131c0.839,0,1.521,0.682,1.521,1.521v2.13C58.46,40.797,57.778,41.479,56.939,41.479z M54.808,37.058 c-0.425,0-0.771,0.346-0.771,0.771v2.13c0,0.425,0.346,0.771,0.771,0.771h2.131c0.425,0,0.771-0.346,0.771-0.771v-2.13 c0-0.425-0.346-0.771-0.771-0.771H54.808z"/></g><g><path fill="#472b29" d="M60.296,29.688c-0.207,0-0.375-0.168-0.375-0.375v-2.211c0-0.207,0.168-0.375,0.375-0.375 s0.375,0.168,0.375,0.375v2.211C60.671,29.52,60.503,29.688,60.296,29.688z"/></g><g><path fill="#472b29" d="M60.293,31.159c-0.09,0-0.19-0.04-0.26-0.11s-0.11-0.17-0.11-0.26c0-0.05,0.01-0.1,0.03-0.15 c0.02-0.04,0.04-0.08,0.08-0.12c0.029-0.03,0.069-0.06,0.12-0.08c0.14-0.06,0.31-0.02,0.409,0.08c0.07,0.07,0.11,0.17,0.11,0.27 s-0.04,0.19-0.11,0.26C60.493,31.119,60.392,31.159,60.293,31.159z"/></g><g><path fill="#472b29" d="M38.187,56.218c-0.207,0-0.375-0.168-0.375-0.375v-1.474c0-0.207,0.168-0.375,0.375-0.375 s0.375,0.168,0.375,0.375v1.474C38.562,56.05,38.394,56.218,38.187,56.218z"/></g></g><g><path fill="#fdfcee" d="M50.162,50.973v8.408v0.423v6.278c-1.482-0.014-4.93-3.821-6.893-3.304 c-1.001,0.263-2.029,1.028-1.967,2.037c0.059,0.967,9.507,8.319,9.746,10.093v7.457H67.01v-7.219V74.85v-0.522V61.326 c0-1.262-1.034-2.312-2.296-2.307c-1.211,0.006-2.138,0.406-2.138,1.565l-0.014-1.383c0-1.094-0.895-1.988-1.988-1.988 s-1.988,0.895-1.988,1.988v-0.639c0-1.03-0.7-1.981-1.716-2.151c-1.044-0.175-1.966,0.48-2.275,1.421v-6.691 c0-1.117-0.914-2.03-2.03-2.03h-0.446C52.119,49.111,50.106,49.111,50.162,50.973z"/><path fill="#472b29" d="M67.01,82.866H51.048c-0.276,0-0.5-0.224-0.5-0.5v-7.458c-0.106-0.757-3.624-3.938-5.727-5.84 c-3.18-2.876-3.984-3.673-4.019-4.222c-0.081-1.31,1.155-2.241,2.339-2.552c1.357-0.357,3.018,0.808,4.625,1.934 c0.653,0.458,1.369,0.959,1.895,1.203V50.98c-0.019-0.661,0.177-1.207,0.58-1.623c0.717-0.738,1.83-0.747,1.877-0.747h0.446 c1.396,0,2.53,1.135,2.53,2.53v5.203c0.526-0.373,1.183-0.539,1.858-0.426c0.838,0.141,1.534,0.725,1.886,1.501 c0.448-0.437,1.061-0.706,1.734-0.706c1.264,0,2.311,0.947,2.468,2.168c0.387-0.215,0.924-0.359,1.671-0.362 c0.004,0,0.009,0,0.013,0c0.732,0,1.426,0.289,1.953,0.813c0.536,0.534,0.832,1.242,0.832,1.993v21.04 C67.51,82.642,67.287,82.866,67.01,82.866z M51.548,81.866H66.51v-20.54c0-0.483-0.191-0.939-0.538-1.285 c-0.338-0.336-0.78-0.521-1.247-0.521c-0.003,0-0.006,0-0.009,0c-1.64,0.007-1.64,0.776-1.64,1.065 c0,0.275-0.223,0.499-0.497,0.5c-0.001,0-0.002,0-0.003,0c-0.274,0-0.497-0.221-0.5-0.495l-0.015-1.383 c0-0.826-0.668-1.494-1.488-1.494s-1.488,0.667-1.488,1.488c0,0.276-0.224,0.5-0.5,0.5s-0.5-0.224-0.5-0.5v-0.639 c0-0.821-0.558-1.534-1.298-1.658c-0.755-0.128-1.471,0.331-1.717,1.083c-0.076,0.233-0.308,0.38-0.555,0.338 c-0.242-0.039-0.421-0.248-0.421-0.494V51.14c0-0.844-0.687-1.53-1.53-1.53h-0.446c-0.005,0-0.745,0.012-1.163,0.447 c-0.209,0.218-0.306,0.513-0.294,0.9c0,0.005,0,0.01,0,0.015v15.109c0,0.133-0.054,0.261-0.148,0.355s-0.217,0.166-0.356,0.145 c-0.783-0.007-1.793-0.715-2.963-1.535c-1.289-0.902-2.893-2.021-3.798-1.786c-0.806,0.212-1.639,0.818-1.595,1.523 c0.162,0.351,2.119,2.12,3.691,3.542c3.559,3.218,5.902,5.41,6.051,6.514L51.548,81.866z"/><path fill="#78a1d1" d="M51.427 74.606H66.584V81.95599999999999H51.427z"/><path fill="#472b29" d="M62.459 74.906H51.27c-.166 0-.3-.134-.3-.3s.134-.3.3-.3h11.189c.166 0 .3.134.3.3S62.626 74.906 62.459 74.906zM53.93 72.245c-.166 0-.3-.134-.3-.3v-8.868c0-.166.134-.3.3-.3s.3.134.3.3v8.868C54.23 72.111 54.096 72.245 53.93 72.245zM58.364 69.63c-.166 0-.3-.134-.3-.3v-6.252c0-.166.134-.3.3-.3s.3.134.3.3v6.252C58.664 69.496 58.53 69.63 58.364 69.63zM62.798 67.812c-.166 0-.3-.134-.3-.3v-4.434c0-.166.134-.3.3-.3s.3.134.3.3v4.434C63.098 67.678 62.964 67.812 62.798 67.812zM64.3 74.906h-.888c-.166 0-.3-.134-.3-.3s.134-.3.3-.3H64.3c.166 0 .3.134.3.3S64.466 74.906 64.3 74.906zM65.455 74.906c-.04 0-.07-.01-.11-.02-.04-.02-.069-.04-.1-.07s-.05-.06-.06-.1c-.021-.03-.03-.07-.03-.11 0-.08.04-.16.09-.21.11-.11.31-.11.43 0 .051.05.08.13.08.21 0 .04-.01.08-.02.11-.021.04-.04.07-.061.1C65.615 74.876 65.535 74.906 65.455 74.906zM58.364 71.35c-.166 0-.3-.134-.3-.3v-.887c0-.166.134-.3.3-.3s.3.134.3.3v.887C58.664 71.216 58.53 71.35 58.364 71.35zM58.364 72.689c-.166 0-.3-.134-.3-.3v-.443c0-.166.134-.3.3-.3s.3.134.3.3v.443C58.664 72.554 58.53 72.689 58.364 72.689z"/><path fill="#657fbe" d="M63.907 77.267A1.108 1.108 0 1 0 63.907 79.483A1.108 1.108 0 1 0 63.907 77.267Z"/><path fill="#472b29" d="M63.907 79.783c-.776 0-1.408-.632-1.408-1.408s.632-1.408 1.408-1.408 1.408.632 1.408 1.408S64.683 79.783 63.907 79.783zM63.907 77.566c-.445 0-.809.363-.809.809s.363.809.809.809.809-.363.809-.809S64.352 77.566 63.907 77.566zM52.6 47.366c-.138 0-.25-.112-.25-.25v-3.695c0-.138.112-.25.25-.25s.25.112.25.25v3.695C52.85 47.254 52.738 47.366 52.6 47.366zM60.237 50.913h-3.436c-.138 0-.25-.112-.25-.25s.112-.25.25-.25h3.436c.138 0 .25.112.25.25S60.375 50.913 60.237 50.913zM47.945 50.913h-3.437c-.138 0-.25-.112-.25-.25s.112-.25.25-.25h3.437c.138 0 .25.112.25.25S48.083 50.913 47.945 50.913z"/><g><path fill="#472b29" d="M55.206,48.577c-0.066,0-0.132-0.026-0.181-0.078c-0.096-0.1-0.092-0.258,0.008-0.354l2.327-2.217 c0.102-0.096,0.26-0.091,0.354,0.009c0.096,0.1,0.092,0.258-0.008,0.354l-2.327,2.217C55.33,48.554,55.267,48.577,55.206,48.577z"/></g><g><path fill="#472b29" d="M49.239,48.577c-0.062,0-0.124-0.023-0.173-0.069l-2.327-2.217c-0.1-0.095-0.104-0.253-0.008-0.354 c0.094-0.1,0.252-0.104,0.354-0.009l2.327,2.217c0.1,0.095,0.104,0.253,0.008,0.354C49.371,48.552,49.305,48.577,49.239,48.577z"/></g></g></svg>