<!-- Generated by IcoMoon.io -->
<svg version="1.1" xmlns="http://www.w3.org/2000/svg" width="32" height="32" viewBox="0 0 32 32">
<title>dds__device-screen-size</title>
<path d="M28.239 20.861v-14.682h-24.476v14.682h-1.956l0.732 4.96h26.923l0.732-4.96h-1.954zM5.645 8.062h20.711v12.8h-20.711v-12.8zM27.836 23.938h-23.673l-0.177-1.195h24.026l-0.176 1.195z"></path>
<path d="M11.862 11.464l-0.005-1.882-4.713 0.013 0.013 4.875 1.882-0.004-0.005-1.571 2.817 2.792 1.324-1.338-2.906-2.879z"></path>
<path d="M24.845 14.453l-1.882 0.004 0.005 1.573-2.819-2.792-1.323 1.338 2.905 2.877-1.591 0.005 0.004 1.882 4.715-0.013z"></path>
</svg>
