<!-- Generated by IcoMoon.io -->
<svg version="1.1" xmlns="http://www.w3.org/2000/svg" width="32" height="32" viewBox="0 0 32 32">
<title>dds__processor</title>
<path d="M19.213 12.636h-6.62v6.633h6.62v-6.633zM17.331 17.387h-2.856v-2.869h2.856v2.869z"></path>
<path d="M30.119 11.834v-1.882h-4.045v-4.19h-4.088v-3.881h-1.882v3.881h-3.336v-3.881h-1.882v3.881h-3.336v-3.881h-1.882v3.881h-3.938v4.188h-3.849v1.882h3.849v3.345h-3.849v1.882h3.849v3.345h-3.849v1.882h3.849v3.857h3.938v3.976h1.882v-3.976h3.336v3.976h1.882v-3.976h3.336v3.976h1.882v-3.976h4.088v-3.857h4.045v-1.882h-4.045v-3.345h4.045v-1.882h-4.045v-3.343h4.045zM24.192 24.262h-16.58v-16.617h16.58v16.617z"></path>
</svg>
