<!-- Generated by IcoMoon.io -->
<svg version="1.1" xmlns="http://www.w3.org/2000/svg" width="32" height="32" viewBox="0 0 32 32">
<title>dds__hard-drive</title>
<path d="M5.020 1.937v28.126h21.959v-28.126h-21.959zM25.097 28.18h-18.194v-24.361h18.194v24.361z"></path>
<path d="M18.57 15.254c0-1.417-1.153-2.57-2.57-2.57s-2.57 1.153-2.57 2.57 1.153 2.57 2.57 2.57 2.57-1.153 2.57-2.57zM15.313 15.254c0-0.379 0.309-0.687 0.687-0.687s0.687 0.309 0.687 0.687-0.309 0.688-0.687 0.688-0.687-0.309-0.687-0.688z"></path>
<path d="M9.461 24.612c0 1.152 0.934 2.086 2.086 2.086 0.955 0 1.758-0.642 2.006-1.518 0 0 0.052-0.221 0.064-0.319l0.912-6.193-4.485 4.5c-0.36 0.375-0.582 0.884-0.582 1.445zM11.043 24.164l1.466-1.471-0.291 1.979c-0.008 0.052-0.026 0.126-0.027 0.136-0.086 0.282-0.348 0.478-0.643 0.478-0.372 0-0.674-0.302-0.674-0.674 0-0.175 0.067-0.34 0.17-0.448z"></path>
<path d="M11.67 19.030c-0.912-1.044-1.415-2.386-1.415-3.776 0-3.167 2.577-5.745 5.745-5.745s5.745 2.577 5.745 5.745-2.577 5.745-5.745 5.745v1.882c4.206 0 7.627-3.421 7.627-7.627s-3.421-7.627-7.627-7.627-7.627 3.421-7.627 7.627c0 1.846 0.667 3.627 1.88 5.015l1.417-1.239z"></path>
</svg>
