<!-- Generated by IcoMoon.io -->
<svg version="1.1" xmlns="http://www.w3.org/2000/svg" width="32" height="32" viewBox="0 0 32 32">
<title>dds__disc-system</title>
<path d="M17.224 1.886c-7.123 0-12.896 5.773-12.896 12.896 0 0.713 0.073 1.406 0.184 2.088h1.903c-0.13-0.676-0.205-1.374-0.205-2.088 0-6.072 4.941-11.014 11.014-11.014s11.014 4.941 11.014 11.014c0 5.824-4.546 10.594-10.274 10.976v1.882c6.776-0.386 12.156-5.986 12.156-12.858 0-7.121-5.773-12.896-12.896-12.896z"></path>
<path d="M7.253 19.433l-0.514-0.68h-4.856v11.413h14.199v-10.076h-8.331l-0.497-0.657zM14.199 21.973v6.312h-10.434v-7.648h2.037l1.011 1.336h7.386z"></path>
<path d="M21.193 14.784c0-2.193-1.777-3.97-3.97-3.97s-3.97 1.777-3.97 3.97c0 1.47 0.808 2.737 1.993 3.424 0.584 0.339 1.254 0.546 1.976 0.546 0.254 0 0.501-0.030 0.74-0.075 1.839-0.346 3.23-1.956 3.23-3.895zM15.136 14.784c0-1.15 0.936-2.088 2.088-2.088s2.088 0.936 2.088 2.088c0 1.152-0.936 2.088-2.088 2.088-1.15 0-2.088-0.937-2.088-2.088z"></path>
</svg>
