<!-- Generated by IcoMoon.io -->
<svg version="1.1" xmlns="http://www.w3.org/2000/svg" width="32" height="32" viewBox="0 0 32 32">
<title>dds__graphics-card</title>
<path d="M30.125 6.647h-22.571v-3.663h-5.679v1.882h3.799v5.242h-1.694v4.964h1.692v2.805h-1.692v4.964h1.692v6.176h1.882v-2.722h22.571v-19.648zM28.243 24.412h-20.683v-15.883h20.683v15.883z"></path>
<path d="M17.901 22.92c3.556 0 6.449-2.893 6.449-6.449s-2.893-6.449-6.449-6.449-6.447 2.893-6.447 6.449 2.891 6.449 6.447 6.449zM17.901 21.037c-0.303 0-0.597-0.034-0.883-0.088l3.145-3.147 1.387 1.387c-0.834 1.114-2.153 1.848-3.65 1.848zM18.831 16.471l-0.93 0.93-0.93-0.93 0.93-0.93 0.93 0.93zM22.468 16.471c0 0.303-0.034 0.597-0.088 0.883l-3.147-3.145 1.387-1.387c1.114 0.836 1.848 2.153 1.848 3.65zM17.901 11.904c0.303 0 0.599 0.034 0.885 0.090l-0.885 0.885-0.666 0.664-1.594 1.596-1.387-1.385c0.834-1.116 2.152-1.85 3.648-1.85zM13.425 15.588l3.145 3.145-1.385 1.387c-1.116-0.834-1.848-2.153-1.848-3.65 0-0.303 0.032-0.597 0.088-0.883z"></path>
</svg>
