<!-- Generated by IcoMoon.io -->
<svg version="1.1" xmlns="http://www.w3.org/2000/svg" width="32" height="32" viewBox="0 0 32 32">
<title>dds__dimensions-weight</title>
<path d="M22.311 5.302v7.315l1.882 3.601v-9.034h4.013v2.265h-1.496v1.882h1.496v1.374h-1.496v1.882h1.496v1.374h-1.496v1.882h1.496v1.374h-1.496v1.882h1.496v3.715h-0.847v1.882h2.73v-21.396z"></path>
<path d="M16.78 8.977v-1.507c0-1.195-0.961-2.167-2.143-2.167h-1.697c-1.182 0-2.145 0.972-2.145 2.167v1.507h-1.616l-7.268 13.903v3.818h23.754v-3.827l-7.261-13.894h-1.623zM12.677 7.469c0-0.154 0.12-0.285 0.263-0.285h1.697c0.142 0 0.261 0.13 0.261 0.285v1.507h-2.221v-1.507zM23.782 24.816h-19.989v-1.473l6.526-12.483h6.945l6.518 12.473v1.483z"></path>
</svg>
